<svg role="img" viewBox="0 0 24 24" xmlns="http://www.w3.org/2000/svg"><title>DuckDB</title><path d="M12 0C5.363 0 0 5.363 0 12s5.363 12 12 12 12-5.363 12-12S18.637 0 12 0zM9.502 7.03a4.974 4.974 0 0 1 4.97 4.97 4.974 4.974 0 0 1-4.97 4.97A4.974 4.974 0 0 1 4.532 12a4.974 4.974 0 0 1 4.97-4.97zm6.563 3.183h2.351c.98 0 1.051 1.49.096 1.49h-2.447V8.257h2.351c.98 0 1.051-1.49.096-1.49h-2.351c-.955 0-.955 2.446-.096 2.446zm-6.563-.096c-1.393 0-2.543 1.107-2.543 2.5 0 1.394 1.15 2.544 2.543 2.544 1.394 0 2.544-1.15 2.544-2.543 0-1.394-1.15-2.544-2.544-2.544z" fill="#FFF000"/></svg>
