<svg xmlns="http://www.w3.org/2000/svg" width="24" height="24" viewBox="0 0 24 24">
  <title>SQLModel</title>
  <path d="m 23.306972,14.003592 c -0.327944,1.526411 -5.19905,2.624802 -11.076171,2.625 -5.8798649,-2.55e-4 -10.7540143,-1.09782 -11.0781255,-2.625 v 5.761719 c -0.00281,1.592006 4.9579961,2.882934 11.0781255,2.882813 6.119364,-1.6e-4 11.078978,-1.291006 11.076171,-2.882813 z m -3.890625,3.246094 c 0.882724,9.65e-4 1.59777,0.716885 1.597657,1.59961 1.13e-4,0.882724 -0.714933,1.598644 -1.597657,1.599609 -0.883486,1.12e-4 -1.599721,-0.716123 -1.599609,-1.599609 -1.13e-4,-0.883486 0.716123,-1.599722 1.599609,-1.59961 z"/>
  <path d="m 23.287109,6.1171875 c -0.327944,1.5264104 -5.19905,2.6248021 -11.076171,2.625 C 6.3310734,8.7419321 1.456924,7.6443676 1.1328128,6.1171872 v 5.7617188 c -0.00281,1.592006 4.9579961,2.882934 11.0781252,2.882813 6.119364,-1.6e-4 11.078978,-1.291006 11.076171,-2.882813 z m -3.890625,3.2460937 c 0.882724,9.652e-4 1.59777,0.7168848 1.597657,1.5996098 1.13e-4,0.882724 -0.714933,1.598644 -1.597657,1.599609 -0.883486,1.12e-4 -1.599721,-0.716123 -1.599609,-1.599609 -1.13e-4,-0.883486 0.716123,-1.5997221 1.599609,-1.5996098 z"/>
  <ellipse cx="12.210595" cy="3.8945496" rx="11.077286" ry="2.8814905"/>
</svg>
